<svg width="94" height="71" viewBox="0 0 94 71" fill="none" xmlns="http://www.w3.org/2000/svg">
<path d="M67.4433 26.591C67.2387 26.591 67.0341 26.4887 66.9319 26.2841L61.8183 11.966C61.716 11.6592 61.8183 11.4546 62.1251 11.3523C62.4319 11.25 62.6364 11.3523 62.7387 11.6592L67.9546 25.5683C67.9546 25.5683 67.8523 26.4888 67.6478 26.591C67.5456 26.591 67.5456 26.591 67.4433 26.591Z" fill="#F6B545"/>
<path d="M35.7387 26.591C35.5342 26.591 35.3296 26.4887 35.2273 26.2841L30.1137 11.966C30.0114 11.6592 30.1137 11.4546 30.4205 11.3523C30.7273 11.25 30.9319 11.3523 31.0342 11.6592L36.25 25.5683C36.25 25.5683 36.1477 26.4888 35.9432 26.591C35.841 26.591 35.841 26.591 35.7387 26.591Z" fill="#F6B545"/>
<path d="M64.8864 12.2727H63.25C61.1023 12.2727 59.0569 11.659 57.2159 10.6363C54.4545 9 50.875 8.79548 47.9091 10.2272L47.4999 1.0227C47.4999 0.409131 46.9886 0 46.4772 0C45.9659 0 45.4545 0.409131 45.4545 1.0227L45.0454 10.125C42.0795 8.79548 38.6022 8.8977 35.7386 10.5341C33.8977 11.6591 31.7499 12.2728 29.7045 12.2728H28.0681C27.4545 12.2728 27.0454 12.6819 27.0454 13.2955C27.0454 13.9091 27.4545 14.3182 28.0681 14.3182H29.7045C32.159 14.3182 34.6136 13.6023 36.7613 12.375C39.2158 10.9432 42.3863 10.9432 44.8408 12.4773L43.409 39.8864C42.8976 39.8864 38.1931 42.5456 38.1931 42.5456C37.6818 42.7501 37.2726 43.466 37.2726 43.9774C37.2726 44.4887 37.7841 45 38.2954 45H54.6591C55.1704 45 55.6818 44.4887 55.6818 43.9773C55.6818 43.466 55.2726 42.75 54.7613 42.5455C54.7613 42.5455 50.159 39.8863 49.5454 39.8863L48.2159 12.4772C50.6704 10.9431 53.8409 10.9431 56.2954 12.3749C58.4431 13.7044 60.8977 14.3181 63.3522 14.3181H64.8864C65.5 14.3181 65.9091 13.909 65.9091 13.2954C65.9091 12.6818 65.4999 12.2727 64.8864 12.2727Z" fill="#C97629"/>
<path d="M29.5 25.5681H36.25V26.7954C36.25 30.0681 33.6932 32.7272 30.625 32.7272C27.5568 32.7272 25 30.0681 25 26.7954V25.5681H29.5Z" fill="#FFCB5B"/>
<path d="M54.7614 42.5454C54.7614 42.5454 50.1591 39.8863 49.5455 39.8863L47.4999 1.02259C47.4999 0.408942 46.4772 -0.000101268 46.4772 1.02259V39.8863L47.8068 42.5454C48.1136 43.2613 47.6022 43.9772 46.8863 43.9772H37.2727C37.2727 44.4886 37.7841 44.9999 38.2954 44.9999H54.6591C55.1704 44.9999 55.6818 44.4886 55.6818 43.9772C55.6818 43.4659 55.2727 42.7499 54.7614 42.5454Z" fill="#B06328"/>
<path d="M63.2499 13.2955C60.8976 13.2955 58.6476 12.6818 56.7044 11.4546C55.3749 10.6364 53.7385 10.2273 52.2044 10.2273C50.4657 10.2273 48.7271 10.7386 47.2953 11.6591L46.4772 12.2727L45.8635 13.0909C46.1704 13.2954 46.6817 13.2954 46.9885 13.0909L47.8067 12.4772C50.2612 10.8409 53.6362 10.7386 56.193 12.2727C58.3407 13.6022 60.7954 14.2159 63.2499 14.2159H64.8862C65.3976 14.2159 65.9089 13.8067 65.9089 13.1932H63.2498V13.2955H63.2499Z" fill="#B06328"/>
<path d="M29.7045 13.2955C32.0568 13.2955 34.3068 12.6818 36.25 11.4546C37.5795 10.6364 39.2159 10.2273 40.75 10.2273C42.4887 10.2273 44.2273 10.7386 45.6592 11.6591L46.4773 12.2728L47.091 13.0909C46.7842 13.2955 46.2728 13.2955 45.966 13.0909L45.1478 12.4773C42.6933 10.8409 39.3183 10.7386 36.7615 12.2728C34.6138 13.6023 32.1592 14.3183 29.7046 14.3183H28.0681C27.5568 14.3183 27.0454 13.9091 27.0454 13.2956H29.7045V13.2955Z" fill="#B06328"/>
<path d="M46.4774 15.3409C48.1719 15.3409 49.5455 13.9673 49.5455 12.2728C49.5455 10.5783 48.1719 9.20459 46.4774 9.20459C44.7828 9.20459 43.4092 10.5783 43.4092 12.2728C43.4092 13.9673 44.7828 15.3409 46.4774 15.3409Z" fill="#FFCB5B"/>
<path d="M48.1138 9.61377C48.4206 10.1251 48.5229 10.6365 48.5229 11.2501C48.5229 12.9888 47.1934 14.3183 45.4547 14.3183C44.8411 14.3183 44.3297 14.1138 43.8184 13.9092C44.432 14.7273 45.3525 15.341 46.4775 15.341C48.2161 15.341 49.5457 14.0115 49.5457 12.2728C49.5456 11.1478 48.9319 10.2274 48.1138 9.61377Z" fill="#F6B545"/>
<path d="M44.9432 12.2727C45.2256 12.2727 45.4546 12.0438 45.4546 11.7613C45.4546 11.4789 45.2256 11.25 44.9432 11.25C44.6608 11.25 44.4319 11.4789 44.4319 11.7613C44.4319 12.0438 44.6608 12.2727 44.9432 12.2727Z" fill="#FFE27A"/>
<path d="M25.5113 26.5909C25.409 26.5909 25.409 26.5909 25.3068 26.5909C25.1023 26.4886 25 25.5682 25 25.5682L30.1137 11.5569C30.2159 11.25 30.5227 11.1477 30.7272 11.25C31.034 11.3523 31.1363 11.6592 31.034 11.8637L25.9204 26.1819C25.9204 26.4887 25.7159 26.5909 25.5113 26.5909Z" fill="#FFCB5B"/>
<path d="M61.2046 25.5681H67.9546V26.7954C67.9546 30.0681 65.3978 32.7272 62.3296 32.7272C59.2614 32.7272 56.7046 30.0681 56.7046 26.7954V25.5681H61.2046Z" fill="#FFCB5B"/>
<path d="M64.8865 25.5682V25.7727C64.8865 29.0454 62.3297 31.7046 59.2615 31.7046H59.1592C60.0797 32.3182 61.1024 32.7272 62.3297 32.7272C65.3978 32.7272 67.9547 30.0681 67.9547 26.7954V25.5681H64.8865V25.5682Z" fill="#F6B545"/>
<path d="M57.2159 26.5909C57.1136 26.5909 57.1136 26.5909 57.0114 26.5909C56.7046 26.4886 56.7046 25.5682 56.7046 25.5682L61.8182 11.5569C61.9205 11.25 62.2274 11.1477 62.4319 11.25C62.7387 11.3523 62.841 11.6592 62.7387 11.8637L57.6251 26.1819C57.625 26.4887 57.4205 26.5909 57.2159 26.5909Z" fill="#FFCB5B"/>
<path d="M61.3068 27.6135H58.2386C57.9318 27.6135 57.7273 27.409 57.7273 27.1022C57.7273 26.7953 57.9318 26.5908 58.2386 26.5908H61.3068C61.6136 26.5908 61.8182 26.7953 61.8182 27.1022C61.8182 27.409 61.6136 27.6135 61.3068 27.6135Z" fill="#FFE27A"/>
<path d="M33.1819 25.5682V25.7727C33.1819 29.0454 30.6251 31.7046 27.5569 31.7046H27.4546C28.3751 32.3182 29.3978 32.7272 30.6251 32.7272C33.6932 32.7272 36.2501 30.0681 36.2501 26.7954V25.5681H33.1819V25.5682Z" fill="#F6B545"/>
<path d="M29.6022 27.6135H26.5341C26.2272 27.6135 26.0227 27.409 26.0227 27.1022C26.0227 26.7953 26.2272 26.5908 26.5341 26.5908H29.6022C29.9091 26.5908 30.1136 26.7953 30.1136 27.1022C30.1136 27.409 29.9091 27.6135 29.6022 27.6135Z" fill="#FFE27A"/>
<path d="M8.14277 59.675L13.8928 58.55V60.3L8.14277 61.425V59.675ZM20.0383 44.5V57H9.23828C7.78828 57 6.55495 56.8917 5.53828 56.675C4.53828 56.4583 3.71328 56 3.06328 55.3C2.41328 54.6 2.08828 53.5583 2.08828 52.175C2.08828 51.4583 2.16328 50.6417 2.31328 49.725C2.47995 48.7917 2.66328 47.9417 2.86328 47.175L5.56328 47.325L5.38828 48.9C5.22161 50.1167 5.13828 50.95 5.13828 51.4C5.13828 53.1 6.37161 53.95 8.83828 53.95H16.6883V44.5H20.0383ZM8.06328 41.375H10.6383V44.5H8.06328V41.375ZM11.8633 41.375H14.4383V44.5H11.8633V41.375ZM28.8582 44.5V57H21.7832V53.95H25.5082V44.5H28.8582ZM25.6832 38.925H28.7582V42.175H25.6832V38.925ZM32.5967 41.65H35.9467V57H32.5967V41.65ZM37.0217 39.225L31.5467 40.3L31.2717 39.125L32.4217 38.825C31.7717 38.275 31.4467 37.6 31.4467 36.8C31.4467 36.1167 31.6883 35.525 32.1717 35.025C32.6717 34.525 33.305 34.275 34.0717 34.275C34.7217 34.275 35.3717 34.475 36.0217 34.875L35.6967 36.375C35.5967 36.2917 35.455 36.2167 35.2717 36.15C35.0883 36.0667 34.88 36.025 34.6467 36.025C34.2633 36.025 33.9467 36.15 33.6967 36.4C33.4633 36.65 33.3467 36.95 33.3467 37.3C33.3467 37.7667 33.5467 38.1417 33.9467 38.425L36.6717 37.7L37.0217 39.225ZM40.8576 60.675L46.6076 59.55V61.3L40.8576 62.425V60.675ZM67.2508 39.5V57H57.3258C55.8758 57 54.6424 56.8917 53.6258 56.675C52.6258 56.4583 51.8008 56 51.1508 55.3C50.5008 54.6 50.1758 53.5583 50.1758 52.175C50.1758 51.0083 50.3758 49.5917 50.7758 47.925L53.5758 48.075L53.4508 49.1C53.3008 50.3 53.2258 51.0667 53.2258 51.4C53.2258 53.1 54.4591 53.95 56.9258 53.95H63.9008V39.5H67.2508ZM61.4758 47.375L56.0008 48.45L55.7258 47.275L56.8758 46.975C56.2258 46.425 55.9008 45.75 55.9008 44.95C55.9008 44.2667 56.1424 43.675 56.6258 43.175C57.1258 42.675 57.7591 42.425 58.5258 42.425C59.1758 42.425 59.8258 42.625 60.4758 43.025L60.1508 44.525C60.0508 44.4417 59.9091 44.3667 59.7258 44.3C59.5424 44.2167 59.3341 44.175 59.1008 44.175C58.7174 44.175 58.4008 44.3 58.1508 44.55C57.9174 44.8 57.8008 45.1 57.8008 45.45C57.8008 45.9167 58.0008 46.2917 58.4008 46.575L61.1258 45.85L61.4758 47.375ZM76.3191 44.5V57H69.2441V53.95H72.9691V44.5H76.3191ZM73.1441 38.925H76.2191V42.175H73.1441V38.925ZM92.2826 39.5V57H79.0576V53.95H82.2076V42.875H85.5576V53.95H88.9326V39.5H92.2826ZM86.6326 40.25L81.1576 41.325L80.8826 40.15L82.0326 39.85C81.3826 39.3 81.0576 38.625 81.0576 37.825C81.0576 37.1417 81.2993 36.55 81.7826 36.05C82.2826 35.55 82.916 35.3 83.6826 35.3C84.3326 35.3 84.9826 35.5 85.6326 35.9L85.3076 37.4C85.2076 37.3167 85.066 37.2417 84.8826 37.175C84.6993 37.0917 84.491 37.05 84.2576 37.05C83.8743 37.05 83.5576 37.175 83.3076 37.425C83.0743 37.675 82.9576 37.975 82.9576 38.325C82.9576 38.7917 83.1576 39.1667 83.5576 39.45L86.2826 38.725L86.6326 40.25Z" fill="#A3BBF8"/>
</svg>

